<svg data-v-0dd9719b="" version="1.0" xmlns="http://www.w3.org/2000/svg" xmlns:xlink="http://www.w3.org/1999/xlink" width="100%" height="100%" viewBox="0 0 340.000000 250.000000" preserveAspectRatio="xMidYMid meet" color-interpolation-filters="sRGB" style="margin: auto;"> <rect data-v-0dd9719b="" x="0" y="0" width="100%" height="100%" fill="#fff" fill-opacity="1" class="background"></rect> <rect data-v-0dd9719b="" x="0" y="0" width="100%" height="100%" fill="url(#watermark)" fill-opacity="1" class="watermarklayer"></rect> <g data-v-0dd9719b="" fill="#333" class="icon-text-wrapper icon-svg-group iconsvg" transform="translate(49.67500305175781,95.00629806518555)"><g class="iconsvg-imagesvg" transform="translate(0,0)"><g><rect fill="#333" fill-opacity="0" stroke-width="2" x="0" y="0" width="60" height="59.987402645444455" class="image-rect"></rect> <svg x="0" y="0" width="60" height="59.987402645444455" filtersec="colorsb5205698574" class="image-svg-svg primary" style="overflow: visible;"><svg xmlns="http://www.w3.org/2000/svg" viewBox="-0.03560884669423103 -0.000012916267223772593 98.25298309326172 98.232421875"><path d="M50.32 45l.06-45h-1.26a49.12 49.12 0 0 0-32.48 86l-.13-66z" fill="#fdd300"></path><path d="M64.29 73.25l.11-70.83A48.58 48.58 0 0 0 57.88.78l-.09 58.82L24 34.57l.11 56.82a48.91 48.91 0 0 0 6.48 3.23l-.09-46.4z" fill="#f29600"></path><path d="M70.92 5.09L70.8 86.9 37 61.87l.07 34.87A49.13 49.13 0 0 0 70.92 5.09z" fill="#036eb7"></path></svg></svg> <!----></g></g> <g transform="translate(67,1.8824539184570312)"><g data-gra="path-name" fill-rule="" class="tp-name iconsvg-namesvg" transform="translate(0,0)"><g transform="scale(1)"><g><path d="M14.98-22.14L22.32-22.14 22.05-18.63 32.22-18.63 32.22 7.11 22.09 7.11 22.09 0.27 24.93 0.27 24.93-11.79 21.55-11.79 20.25 7.02 12.87 7.02 14.22-11.79 2.88-11.79 2.88-18.63 14.71-18.63 14.98-22.14ZM8.41-33.7L15.75-33.7 15.75-31.68 30.2-31.68 30.2-33.7 37.53-33.7 37.53-31.68 43.16-31.68 43.16-24.84 37.53-24.84 37.53-22.81 30.2-22.81 30.2-24.84 15.75-24.84 15.75-22.81 8.41-22.81 8.41-24.84 2.7-24.84 2.7-31.68 8.41-31.68 8.41-33.7ZM34.02-18.63L40.73-18.63 42.34 7.02 35.55 7.02 34.02-18.63ZM4.59-9.76L11.61-9.76 9.58 7.02 2.61 7.02 4.59-9.76ZM50.45-33.98L57.78-33.98 57.78 7.29 46.98 7.29 46.98 0.49 50.45 0.49 50.45-12.87 46.98-12.87 46.98-19.71 50.45-19.71 50.45-33.98ZM65.7-33.98L73.03-33.98 73.03 7.29 65.7 7.29 65.7-12.87 60.8-12.87 60.8-19.71 65.7-19.71 65.7-33.98ZM81-33.98L88.29-33.98 88.29 7.29 81 7.29 81-12.87 76.09-12.87 76.09-19.71 81-19.71 81-33.98ZM132.48 0.36L132.48 7.15 126.13 7.15 123.34 3.87 120.24 7.15 113.89 7.15 113.89 0.36 116.78 0.36 118.66-1.53 112.95-8.19 121.05-8.19 122.98-5.98 124.78-7.79 124.78-11.12 112.72-11.12 112.72 7.15 105.39 7.15 105.39-30.87 115.61-30.87 115.61-33.84 122.94-33.84 122.94-30.87 132.44-30.87 132.44-19.93 125.59-19.93 125.59-24.07 122.94-24.07 122.94-17.91 132.16-17.91 132.16-5.4 127.71-0.67 128.66 0.36 132.48 0.36ZM96.89-33.84L104.17-33.84 101.52-21.38 104.17-21.38 101.97-11.12 102.83-11.12 102.83 7.15 95.49 7.15 95.49-7.42 92.03-7.42 92.03-14.26 95.4-14.26 96.57-19.84 92.03-19.84 92.03-26.68 95.4-26.68 96.89-33.84ZM112.72-24.07L112.72-17.91 115.61-17.91 115.61-24.07 112.72-24.07ZM139.68-33.98L175.32-33.98 175.32-3.78 167.99-3.78 167.99-27.13 147.01-27.13 147.01-3.78 139.68-3.78 139.68-33.98ZM153.85-22.9L161.15-22.9 161.15-9.81 170.5 0.72 176.26 0.72 176.26 7.25 166.19 7.25 157.5-2.48 149.4 7.25 138.74 7.25 138.74 0.72 145.08 0.72 153.85-9.81 153.85-22.9Z" transform="translate(-2.6100001335144043, 33.97999954223633)"></path></g> <!----> <!----> <!----> <!----> <!----> <!----> <!----></g></g> <g data-gra="path-slogan" fill-rule="" class="tp-slogan iconsvg-slogansvg" fill="#333" transform="translate(45.47917175292969,47.27000045776367)"><!----> <!----> <g transform="scale(1, 1)"><g transform="scale(1)"><path d="M7.17-6.09L7.17-6.09L6.09-6.09Q6-7.73 3.94-7.83L3.94-7.83Q2.02-7.78 2.02-6.33L2.02-6.33Q2.02-5.39 3.05-5.25L3.05-5.25L5.48-4.69Q7.41-4.22 7.41-2.34L7.41-2.34Q7.36 0.05 4.03 0.14L4.03 0.14Q2.20 0.14 1.45-0.61L1.45-0.61Q0.52-1.31 0.56-2.77L0.56-2.77L1.69-2.77Q1.73-0.80 4.03-0.75L4.03-0.75Q6.28-0.80 6.33-2.20L6.33-2.20Q6.52-3.38 4.45-3.75L4.45-3.75L2.67-4.13Q0.84-4.64 0.84-6.19L0.84-6.19Q0.98-8.72 3.84-8.81L3.84-8.81Q7.08-8.81 7.17-6.09ZM14.53-3.19L14.53-8.58L15.70-8.58L15.70-3.05Q15.56 0.05 12.19 0.14L12.19 0.14Q9.05 0.05 8.91-2.86L8.91-2.86L8.91-8.58L10.08-8.58L10.08-3.19Q10.13-0.84 12.23-0.80L12.23-0.80Q14.53-0.84 14.53-3.19L14.53-3.19ZM18.33-1.03L23.63-1.03L23.63 0L16.88 0L16.88-0.94L22.13-7.59L17.25-7.59L17.25-8.58L23.63-8.58L23.63-7.59L18.33-1.03ZM25.92-5.06L30.42-5.06L30.42-8.58L31.59-8.58L31.59 0L30.42 0L30.42-3.98L25.92-3.98L25.92 0L24.75 0L24.75-8.58L25.92-8.58L25.92-5.06ZM40.17-4.27L40.17-4.27Q39.98-7.64 37.17-7.83L37.17-7.83Q34.31-7.69 34.17-4.27L34.17-4.27Q34.31-0.94 37.17-0.80L37.17-0.80Q39.98-0.98 40.17-4.27ZM41.34-4.27L41.34-4.27Q41.06 0 37.17 0.14L37.17 0.14Q33.23 0 32.95-4.27L32.95-4.27Q33.19-8.72 37.17-8.81L37.17-8.81Q41.06-8.67 41.34-4.27ZM48.38-3.19L48.38-8.58L49.55-8.58L49.55-3.05Q49.41 0.05 46.03 0.14L46.03 0.14Q42.89 0.05 42.75-2.86L42.75-2.86L42.75-8.58L43.92-8.58L43.92-3.19Q43.97-0.84 46.08-0.80L46.08-0.80Q48.38-0.84 48.38-3.19L48.38-3.19ZM57.89-7.64L55.83-7.64L55.83-4.97L57.89-4.97Q59.72-4.92 59.67-6.38L59.67-6.38Q59.67-7.64 57.89-7.64L57.89-7.64ZM58.36 0L54.66 0L54.66-8.58L58.45-8.58Q60.75-8.48 60.84-6.42L60.84-6.42Q60.84-5.16 59.72-4.64L59.72-4.64Q61.31-4.08 61.31-2.53L61.31-2.53Q61.17-0.09 58.36 0L58.36 0ZM58.08-3.98L55.83-3.98L55.83-0.98L58.31-0.98Q60.09-1.03 60.14-2.53L60.14-2.53Q60.14-3.98 58.08-3.98L58.08-3.98ZM62.81-8.58L63.98-8.58L63.98 0L62.81 0L62.81-8.58ZM69.19-7.64L67.13-7.64L67.13-4.97L69.19-4.97Q71.02-4.92 70.97-6.38L70.97-6.38Q70.97-7.64 69.19-7.64L69.19-7.64ZM69.66 0L65.95 0L65.95-8.58L69.75-8.58Q72.05-8.48 72.14-6.42L72.14-6.42Q72.14-5.16 71.02-4.64L71.02-4.64Q72.61-4.08 72.61-2.53L72.61-2.53Q72.47-0.09 69.66 0L69.66 0ZM69.38-3.98L67.13-3.98L67.13-0.98L69.61-0.98Q71.39-1.03 71.44-2.53L71.44-2.53Q71.44-3.98 69.38-3.98L69.38-3.98ZM75.23-1.03L80.39-1.03L80.39 0L74.06 0L74.06-8.58L80.30-8.58L80.30-7.59L75.23-7.59L75.23-4.92L79.92-4.92L79.92-3.89L75.23-3.89L75.23-1.03ZM82.08-8.58L83.25-8.58L83.25 0L82.08 0L82.08-8.58Z" transform="translate(-0.5602678571428572, 8.8125)"></path></g></g></g></g></g><defs v-gra="od"></defs></svg>